<svg xmlns="http://www.w3.org/2000/svg" width="28.285" height="277.142" viewBox="0 0 28.285 277.142">
  <g id="Grupo_71" data-name="Grupo 71" transform="translate(-424.858 -448.858)">
    <line id="Linha_39" data-name="Linha 39" y2="53" transform="translate(438.5 487.5)" fill="none" stroke="#b9b9b9" stroke-width="1"/>
    <line id="Linha_40" data-name="Linha 40" y2="55" transform="translate(438.5 562.5)" fill="none" stroke="#b9b9b9" stroke-width="1"/>
    <line id="Linha_46" data-name="Linha 46" y2="69" transform="translate(438.5 639.5)" fill="none" stroke="#b9b9b9" stroke-width="1"/>
    <g id="Elipse_5" data-name="Elipse 5" transform="translate(432 545)" fill="none" stroke="#cde322" stroke-width="1">
      <circle cx="6.5" cy="6.5" r="6.5" stroke="none"/>
      <circle cx="6.5" cy="6.5" r="6" fill="none"/>
    </g>
    <g id="Elipse_6" data-name="Elipse 6" transform="translate(432 622)" fill="none" stroke="#cde322" stroke-width="1">
      <circle cx="6.5" cy="6.5" r="6.5" stroke="none"/>
      <circle cx="6.5" cy="6.5" r="6" fill="none"/>
    </g>
    <g id="Elipse_7" data-name="Elipse 7" transform="translate(432 713)" fill="none" stroke="#cde322" stroke-width="1">
      <circle cx="6.5" cy="6.5" r="6.5" stroke="none"/>
      <circle cx="6.5" cy="6.5" r="6" fill="none"/>
    </g>
    <path id="Caminho_52" data-name="Caminho 52" d="M12.817,6.629a1.326,1.326,0,1,1,2.652,0v6.806l4.712,3.138a1.279,1.279,0,0,1,.32,1.84,1.217,1.217,0,0,1-1.79.32l-5.3-3.536a1.211,1.211,0,0,1-.591-1.1ZM14.142,0A14.142,14.142,0,1,1,0,14.142,14.141,14.141,0,0,1,14.142,0ZM2.652,14.142A11.491,11.491,0,1,0,14.142,2.652,11.489,11.489,0,0,0,2.652,14.142Z" transform="translate(424.858 448.858)" fill="#cde322"/>
  </g>
</svg>