<svg xmlns="http://www.w3.org/2000/svg" width="884.947" height="233.583" viewBox="0 0 884.947 233.583">
  <g id="logo" transform="translate(-537.59 -423.207)">
    <path id="Caminho_44" data-name="Caminho 44" d="M1026.11,464.6v21.46l.87-.39v-20C1026.69,465.34,1026.41,465,1026.11,464.6ZM675.22,546.2v16.5c.08-.4.16-.81.23-1.22h0a17.007,17.007,0,0,0,.29-3.1V546.1c-.14-1.11-.31-2.22-.51-3.32Z" fill="#fff"/>
    <path id="Caminho_45" data-name="Caminho 45" d="M1401.78,458.57c-10.6-.37-18.17-8.37-18-17.94.18-10.28,8.64-17.6,18.47-17.42,10.51.19,18.06,8.3,17.93,17.82C1420,451.28,1411.68,458.5,1401.78,458.57ZM1402,425a15.9,15.9,0,1,0,0,31.78c9,0,16.42-7.07,16.42-15.68A16.08,16.08,0,0,0,1402,425Z" fill="#fff"/>
    <path id="Caminho_46" data-name="Caminho 46" d="M1394.1,450.35V430.27h8.54a14.59,14.59,0,0,1,4.67.54,4.55,4.55,0,0,1,2.34,1.93,5.821,5.821,0,0,1,.88,3.16,5.371,5.371,0,0,1-1.33,3.73,6.369,6.369,0,0,1-4,1.86,9.612,9.612,0,0,1,2.17,1.69,23.913,23.913,0,0,1,2.31,3.26l2.45,3.91h-4.85l-2.93-4.36a28.5,28.5,0,0,0-2.14-3,3.2,3.2,0,0,0-1.22-.83,6.378,6.378,0,0,0-2-.23h-.82v8.38Zm4.06-11.58h3a15.64,15.64,0,0,0,3.64-.25,2.27,2.27,0,0,0,1.14-.85,2.618,2.618,0,0,0,.41-1.5,2.4,2.4,0,0,0-.54-1.64,2.46,2.46,0,0,0-1.53-.79c-.33-.05-1.31-.07-3-.07h-3.16Z" fill="#fff"/>
    <path id="Caminho_47" data-name="Caminho 47" d="M1026.11,464.6c.3.37.58.74.87,1.11v20l-.87.39Z" fill="#fff"/>
    <path id="Caminho_48" data-name="Caminho 48" d="M1110.4,553.91c-4.23,0-8.46-.27-12.69-.34a17,17,0,0,0-2.82.38,30.651,30.651,0,0,1-9.51-.26,25.248,25.248,0,0,0-6.78.34,43.69,43.69,0,0,1-19.24-1.76,4.628,4.628,0,0,0-1.6-.23c-2.6,0-5.2-.07-7.79,0a3.64,3.64,0,0,1-3.19-1.47,21.3,21.3,0,0,1-1.47-2,2.44,2.44,0,0,0-2-1.33c-1.62-.18-2.18-1.3-1.76-2.94.09-.36.21-.64-.18-1a12.271,12.271,0,0,1-2.58-3.48c-.74-1.19-.55-1.85.71-2.45a7.191,7.191,0,0,1,1.68-.55c.52-.1.65-.36.64-.83s-.11-.8-.64-.87a2.09,2.09,0,0,1-1.86-1.18c-.18-.4-.54-.22-.84-.17-1.25.18-2.5.42-3.76.58a6.07,6.07,0,0,1-1.9,0,1.454,1.454,0,0,1-1.08-2,1.06,1.06,0,0,1,1.63-.69c1.26.63,1.94.59,2.42-1,.32-1,1.53-1.54,2.6-1.82,4.52-1.14,9-1.78,13.71-.67,1.58.38,3.22-.37,4.83-.58a3.57,3.57,0,0,1,2.74.42,1.89,1.89,0,0,0,1.44.22c9.17-1.14,18.36-.51,27.55-.28,2.95.07,6,.63,8.85.24,5.36-.73,10.7-.17,16-.11.29.61.59,1.21.89,1.81l11.19,23.92C1120.55,554,1115.48,554,1110.4,553.91Z" fill="#fff"/>
    <path id="Caminho_49" data-name="Caminho 49" d="M1137.64,598.7c-.85,0-1.7.06-2.55.07-1.63,0-3.26,0-4.89.06l-18.76.08c3.13-6.94,5.92-14,8.77-21.06,2.58-6.39,5-12.84,7.59-19.26l10,21.39c.8,2,1.59,4,2.4,6,.72,1.8,1.45,3.61,2.19,5.41C1144.28,596,1142.68,598.49,1137.64,598.7Z" fill="#fff"/>
    <path id="Caminho_50" data-name="Caminho 50" d="M1115.27,656.79a11.771,11.771,0,0,1,.85-4.23c.23-.55.53-1.4,1.25-1.14.51.18.41,1,.25,1.61-.27,1-.54,1.91-.83,2.86-.09.3-.29.57-.16.9Z" fill="#adbd37"/>
    <path id="Caminho_51" data-name="Caminho 51" d="M1237.62,637.6c0-.51.08-1.19.14-1.86s.5-.56.92-.53.34.42.31.71c-.06.68-.14,1.35-.2,2,0,.5-.37.54-.77.54C1237.46,638.49,1237.47,638.17,1237.62,637.6Z" fill="#adbd37"/>
    <path id="Caminho_52" data-name="Caminho 52" d="M1124.89,632.74c-.27-2.21,2.17-8.56,3.88-10.25C1129.42,624.07,1126.84,631.06,1124.89,632.74Z" fill="#adbd37"/>
    <path id="Caminho_53" data-name="Caminho 53" d="M1236.81,489.34a55.341,55.341,0,0,1-5.62-.06c-.89-.09-.56-1-.17-1.5a1.48,1.48,0,0,1,1.64-.43,26.918,26.918,0,0,0,4.22,1.54Z" fill="#adbd37"/>
    <path id="Caminho_54" data-name="Caminho 54" d="M1118.21,648.28c0-.71,0-1.55.81-1.53s.51.92.57,1.44-.16,1.28-.92,1.23S1118.43,648.61,1118.21,648.28Z" fill="#adbd37"/>
    <path id="Caminho_55" data-name="Caminho 55" d="M1421.44,463.08a17.381,17.381,0,0,0-3.37-.44c-3.41.06-6.8.64-10.23.06-1.16-.19-2.49.26-3.59.21a20.4,20.4,0,0,1-4-.08c-2.23-.52-4.61-.17-6.93,0-1.61.13-3.22.71-4.84.07a4.31,4.31,0,0,0-2.54-.05,16.291,16.291,0,0,1-6.49.21c-1.07-.2-2.2-.78-3.32-.15a3.42,3.42,0,0,1-2.11.26c-1.77-.18-3.53-.42-5.3-.44-6.83-.07-13.66-.07-20.5-.11-.46,0-1.2.26-1.32-.35-.35-1.87-1.69-1.73-3-1.71l-38,.79a6.74,6.74,0,0,1-4.51-1.07,1.19,1.19,0,0,0-2,.54c-.2.48-.53.52-1,.53-2.45.07-4.91.17-7.37.24-9.23.3-18.47.53-27.71.91-2.7.11-5.34-.4-8.09-.19-7,.55-14,.68-21,.88-1.78.05-3.63.51-5.36-.44-.25-.14-.52,0-.77.14a6.459,6.459,0,0,1-2.54.38c-14.17,0-28.34-.07-42.5,0a8.56,8.56,0,0,1-6.35-2.16.682.682,0,0,0-1.12,0,8.47,8.47,0,0,1-5.45,2.51c-.9.09-1.17.3-1.17,1.27,0,3.68-1.8,6-5.3,6.72-1.22.26-1.45.64-1.07,1.81s1.11,2.4.49,3.79c-5.7,12.8-10.72,25.9-16.81,38.53a77.231,77.231,0,0,1-6.21,11.18,2.22,2.22,0,0,1-2,1.16c-6.69-.07-13.39-.06-20.08-.07-1.5.1-3,.12-4.49.1-5.34-.06-10.68-.62-16,.11-2.89.39-5.9-.17-8.85-.24-9.19-.23-18.38-.86-27.55.28a1.89,1.89,0,0,1-1.44-.22,3.57,3.57,0,0,0-2.74-.42c-1.61.21-3.25,1-4.83.58-4.66-1.11-9.19-.47-13.71.67-1.07.28-2.28.79-2.6,1.82-.48,1.58-1.16,1.62-2.42,1a1.06,1.06,0,0,0-1.63.69c-.23.93,0,1.79,1.08,2a6.07,6.07,0,0,0,1.9,0c1.26-.16,2.51-.4,3.76-.58.3,0,.66-.23.84.17a2.09,2.09,0,0,0,1.86,1.18c.53.07.63.4.64.87s-.12.73-.64.83a7.19,7.19,0,0,0-1.68.55c-1.26.6-1.45,1.26-.71,2.45a12.268,12.268,0,0,0,2.58,3.48c.39.31.27.59.18,1-.42,1.64.14,2.76,1.76,2.94a2.44,2.44,0,0,1,2,1.33,21.323,21.323,0,0,0,1.47,2,3.64,3.64,0,0,0,3.19,1.47c2.59-.09,5.19,0,7.79,0a4.628,4.628,0,0,1,1.6.23,43.69,43.69,0,0,0,19.26,1.7,25.251,25.251,0,0,1,6.78-.34,30.65,30.65,0,0,0,9.51.26,17.008,17.008,0,0,1,2.82-.38c4.23.07,8.46.29,12.69.34q7.62.09,15.23,0h2c1,0,1.32.22,1.11,1.19a17.823,17.823,0,0,1-.65,2.76c-.09.24-.19.47-.28.71-2.54,6.42-5,12.87-7.59,19.26-2.85,7-5.64,14.12-8.77,21.06,0,.09-.07.17-.11.26-.19.51-.38,1-.59,1.52-3.75,8.74-7.61,17.44-11.8,26-.74,1.5-.35,2.41,1.26,2.9a3.34,3.34,0,0,0,1.33.16c1-.09,1.06.42.87,1.16a9.842,9.842,0,0,1-1.08,2.49,54.362,54.362,0,0,1-3.48,5,2.64,2.64,0,0,0,.44,3.25c.69.58,1.29-.18,1.85-.48a10.252,10.252,0,0,0,1.9-1.32c1.16-1,2.28-2,3.57-3.15.15,2,.72,3.84,0,5.55a11.7,11.7,0,0,0-.14,8.91c.56,1.59.68,1.79,2.27,1.05a2.05,2.05,0,0,0,1.29-2.05c0-.29,0-.57.39-.61.15,0,.46.07.48.15.16,1,1.19,1.67.56,2.88a11.071,11.071,0,0,0-1.45,4.19h3.28c-.11-.64.33-1.11.55-1.63,3.2-7.4,5.46-15.16,8.45-22.63,1.09-2.74,2-5.58,3.32-8.18,4-7.73,6.49-16.09,9.84-24.09.21-.5.45-1,.67-1.49l.06-.12,5.06-12.65,2-5c1.08-3.38,2.6-6.57,4-9.83,2.27-5.39,4.62-10.75,7.34-15.94.29-.56.6-1.11.91-1.67.11.07.21.1.22.15.55,2,.68,2.08,2.27.54a4.91,4.91,0,0,0,1.84-3.38c0-.52.24-.68.75-.7a78.623,78.623,0,0,0,10.81-1.34c.35-.06.81-.25,1.06-.11,2,1.09,3.89.08,5.8-.21,2.75-.43,5.51-.51,8.28-.73.39,0,1.1.39,1.09-.53s-.52-.91-1.2-.9c-.39,0-1,.3-1.16-.34s-.23-1.31.83-1.23c.86.06,1.73,0,2.6,0s1.34.61,1.92,1.26c1.19,1.35.42,2.55,0,3.78-5.73,17.76-10.92,35.68-15.3,53.83a3.686,3.686,0,0,1-.35,1c-3,5.1-3.81,10.82-4.78,16.49-.56,3.21-.92,6.47-1.32,9.71,0,.42-.52,1.11.43,1.29.77.14.85-.35,1-.9a25.811,25.811,0,0,1,1-2.54c.45-1,1.45-1.15,2-.14a3.27,3.27,0,0,1,.27,3.33,10,10,0,0,0-1.2,5.65c0,.74.34.89,1,.88a2.81,2.81,0,0,0,2.25-1.12,2.86,2.86,0,0,1,1.85-1.14,10.561,10.561,0,0,0,3.12-1.31c.55-.36,1.22-.79,1.24-1.38,0-1.43,1.08-2,2-2.72,5-4.33,7.69-10,9.5-16.21q6.81-23.42,13.73-46.8,4.29-14.59,8.62-29.18c.16-.53.07-1.27,1-1.37.64-.07.43-.85.25-1.12-.44-.65-.17-1.17,0-1.77q2.67-9.06,5.33-18.12c.13-.44.42-.91,0-1.27-1.37-1.15-.8-2.66-.82-4.07a2.52,2.52,0,0,1,.12-.53c.44-2.45-.07-2.92-2.57-2.48-.78.14-1,.76-1.22,1.33a107.313,107.313,0,0,0-3.78,11c-.43,1.38-.8,2.79-1.25,4.16-.17.5-.07,1.49-.87,1.27s-.34-1-.13-1.58c1.28-3.54,2.5-7.09,3.47-10.73a67.452,67.452,0,0,0,2.5-16.28,12.733,12.733,0,0,0-2.25,2.59c-.61.73-1.19,1.49-1.76,2.26-.4.55-1,.43-1.49.36s-.36-.63-.41-1c-.15-1.21-.27-2.44-.39-3.66,0-.51-.22-.79-.84-.8s-.66.39-.7.87a2.16,2.16,0,0,1-1.38,2.15c-.61.23-.59.88-.77,1.36q-5.38,14.33-10.39,28.76c-.13.37-.27.73-.45,1.2-.85-.73-1.61-1.36-2.34-2a3.41,3.41,0,0,0-3.92-.6,2.7,2.7,0,0,1-1.94,0c-1.47-.43-3-.81-4.48,0-.19.11-.37.25-.62.12-2.29-1.09-4.61-.8-6.92-.1-.31.09-.54.29-.79-.1-.15-.24-.5-.42-.71-.26-1.67,1.19-2.73-.75-4.16-.8-.86,0-.28-.69-.19-1a87.451,87.451,0,0,1,6.8-17.74c2.6-5.09,5-10.31,8.39-15,.62-.84,1.29-1.64,2-2.43a7,7,0,0,1,6.09-2.68c3.58.22,7.19-.17,10.75.59a3,3,0,0,0,1.22,0c5-1.12,10-.06,14.95-.12,2.73,0,5.46.13,8.2.2a1.32,1.32,0,0,0,.53-.05c.46-.21,1.23-.17,1.19-.89s-.65-1-1.26-1c-1.36-.13-2.72-.16-4.08-.26q-4.1-.27-8.17-.59c-.36,0-1,.19-.92-.46s.65-.33,1-.33h20.5a2.86,2.86,0,0,0,1.83-.37c.33-.24.65-.45,1,.11s.92.25,1.38.24q11.34-.24,22.67-.52h3.83c1.27,0,1.45.19.86,1.43-1.73,3.69-3.8,7.3-4.72,11.27-2.57,11.17-7.23,21.62-10.93,32.39s-7.67,21.41-11.29,32.19q-12.63,37.62-25.25,75.24c-.69,2-.47,2.86,1.28,4,.53.36.32.69.24,1a21.974,21.974,0,0,1-.81,2.88,7.07,7.07,0,0,0-.09,5.51c.47,1.13-.37,2-.73,2.94-.29.73-.86-.27-1.42.13a.053.053,0,0,0-.05.06c.24,2.3.33,2.3,2.79,1.89.74-.12,2-1.13,2.29.65h2.19a28.825,28.825,0,0,0,3.51-5.8,120.52,120.52,0,0,0,4.34-11.29c.13-.39.11-1.12.69-1,.79.2,2,0,1.91,1.51a5.372,5.372,0,0,1-.4,2.1c-1.88,4-3.74,8-5.63,11.93-.39.81-.52,1.58.47,1.9a2,2,0,0,0,2.43-.68,10.247,10.247,0,0,0,1.16-2.46q4.4-12.36,8.78-24.71c.2-.56.28-1.35,1.24-.7s1.27.24,1.22-.85c0-1.3-.37-2.69.42-3.86a2.21,2.21,0,0,0,.32-1.52c0-.49-.57-1.22.16-1.4s.25.82.63,1.11a.731.731,0,0,0,.25.12c.42-.44.31-1,.37-1.54a26.667,26.667,0,0,1,1.67-7.54c.36-.85,1.29-1.55.44-2.63-.2-.26.16-.58.32-.84A41.719,41.719,0,0,0,1252,595.6a139.008,139.008,0,0,1,5-15.64c7.93-22.43,15.89-44.85,24.57-67,2.82-7.21,6.33-14.14,8.49-21.61a18.531,18.531,0,0,1,2.84-5.56,3.23,3.23,0,0,1,2.79-1.53c9.17-.3,18.33-.75,27.48-1.4h.54c4.64-.13,9.29-.22,13.93-.44.74,0,1.14.88,2,.41a5.22,5.22,0,0,1,2.67-.38,110.7,110.7,0,0,0,13.5-.49c1.21-.14,2.52-.51,3.68.37a1.026,1.026,0,0,0,.92,0,47.347,47.347,0,0,1,8.15-.68h12.43c.41,0,1,.18.93-.61s-.49-.56-.89-.54c-1.32.08-2.63-.29-3.94-.24-1.83.06-3.71-1.07-5.51.16a1.158,1.158,0,0,1-.33-.16c-1.06-1.08-2.46-1.09-3.8-1.11-2.78-.06-5.56,0-8.34,0a1.59,1.59,0,0,1-1.81-1.36h1.7c4.37-.08,8.78,0,13.06-.82a71.541,71.541,0,0,1,15.72-1.11,4.869,4.869,0,0,0,.54,0,1.4,1.4,0,0,0,.65-.17,1.12,1.12,0,0,1,1.54,0c.59.41.93.18.89-.67s-.77-1.1-1.47-1.29a3.11,3.11,0,0,1,1.78-1.36c2.74-1.25,5.52-2.34,8.64-2,.34,0,.91.26,1-.35s-.19-.89-.81-1c-1.37-.31-2.71-.75-4.08-1.05-.72-.15-.74-.51-.35-.91,1.3-1.34,2.61-2.63,4.71-2.62h20.63c.37,0,1,.34,1.08-.42S1421.93,463.17,1421.44,463.08Zm-361.18,86c-2.81.89-5.58.41-8.37-.05-.92-.15-1.3-.6-1.13-1.55h9.41c.51,0,1-.07,1,.72s-.38.74-.91.91Zm7-11.7h-7.35a17.677,17.677,0,0,0-3.77.39,3.939,3.939,0,0,1-2.7-.07c-1.09-.47-2.5-.22-3.78-.27-.4,0-.81,0-.83-.59s.38-.61.8-.61a59.988,59.988,0,0,0,7.22-.25c1.79-.22,3.59-.33,5.38-.51a7,7,0,0,1,5.11,1.54,2.186,2.186,0,0,1-.05.4Zm6.45,11.64a7.149,7.149,0,0,1-2.73.07c-.64-.13-.54-.46-.52-.86a9.18,9.18,0,0,1,3-.12c.85.06.71.52.28.94Zm17.8.58c-4,0-7.91.09-11.86-.06-1.08,0-2.57.2-3.16-1.32a97.225,97.225,0,0,1,10.66,0,23.259,23.259,0,0,0,3.27.8c.64.21.49-.7,1-.7h1.63a1.35,1.35,0,0,1-1.51,1.31Zm87,82.33c-.3.66-.72.13-.89-.33-.88-2.47.87-4.54,3.65-4.19-.77,1.59-1.96,2.93-2.68,4.59Zm12.06-86.2s-.29-.13-.28-.19a2.519,2.519,0,0,1,.94-1.67c.06.17.1.22.09.25-.16.57-.09,1.27-.67,1.64Zm3.83,40.29c.57.12.25.54.13.84a5.37,5.37,0,0,1-1.92,3,8.478,8.478,0,0,1,.6-3.55c.22-.54.87-.31,1.27-.26Zm-12.81-46.77,10.21-1.57c.27-.05.54-.06,1.12-.12s.5.23.31.89c-.86,3-.84,3-4,3-2.27-.07-4.54-.2-6.81-.32a3.419,3.419,0,0,1-1-.24,1.16,1.16,0,0,1-.82-1.14c.12-.48.68-.41,1.07-.47Zm26-52c-1.5,0-3,.07-4.5-.05-2.92-.24-5.87-.05-8.9-.64l14.93-.66a1.4,1.4,0,0,1-1.43,1.39Zm26.25,144.82a4.3,4.3,0,0,1-1.33,3.13c0-1.22,0-2.24,0-3.27,0-.64.37-.87,1-.78s.49.58.43.96Zm28.17-72.33c-.41.06-.37-.36-.29-.57.25-.65-.18-1.7.68-1.93.58-.16.25.68.42,1,.03.68.18,1.42-.71,1.54Zm2.26-5.3c-.82,0-.4-.83-.62-1.12-.1-.61,0-.88.61-.9s.69.39.71.88-.03,1.16-.6,1.18Zm6.21-18.46c-.33,0-.73,0-.52-.5.3-.69,0-1.44.3-2.14a1.43,1.43,0,0,1,1.47,1.7c.06.76-.49.96-1.15.96Zm6.77-16.9c0,.48-.33.45-.65.45-.48,0-.51-.31-.37-.63a3.6,3.6,0,0,0,.21-1.45c0-.25-.06-.61.34-.59s.36.35.39.61a6.515,6.515,0,0,0,.08.94,3,3,0,0,1,.1.71Zm6-16.5a1,1,0,0,1-.06.53c-.13.49.24,1.28-.79,1.22s-.62-.81-.74-1.22a1.19,1.19,0,0,1,.29-1.1,1.29,1.29,0,0,1,1.22-.44c.77.26.03.71.16,1.05Zm1-3.55a3.116,3.116,0,0,1-.17.65c-.05.22,0,.74-.47.65s-.29-.49-.31-.78a1.966,1.966,0,0,1,.24-.79c.09-.25-.21-1.25.64-1,.82.24.22.87.16,1.31Zm4.19-11.62a22.64,22.64,0,0,1-1.86,6,5,5,0,0,1-.7,1c-.26.29-.59.72-1,.43a.94.94,0,0,1-.17-1.14,34.48,34.48,0,0,0,2.37-6.92c.15-.58.57-.52,1-.48s.53.13.45,1.15Zm64.83-8.33h-4.91c-.21,0-.48,0-.52-.3s.15-.4.4-.41h5.05c.25,0,.46.1.46.38s-.16.37-.39.37Z" fill="#adbd37"/>
    <path id="Caminho_56" data-name="Caminho 56" d="M675.22,542.78V562.7c.08-.4.16-.81.23-1.22h0a17.007,17.007,0,0,0,.29-3.1V546.1C675.59,545,675.42,543.88,675.22,542.78Z" fill="#fff"/>
    <path id="Caminho_57" data-name="Caminho 57" d="M675.22,546.2v-3.42c-.37-2.09-.85-4.15-1.38-6.2a42.579,42.579,0,0,0-7.59-15.52,36.368,36.368,0,0,0-7.87-7.6c-.7-.49-.27-1,0-1.34a40.927,40.927,0,0,0,3.76-6.51,52.478,52.478,0,0,0,4.33-14.06,58.926,58.926,0,0,0,.73-13.19,55.393,55.393,0,0,0-4-18.14,54.066,54.066,0,0,0-7.2-12.55,29.41,29.41,0,0,0-16.84-10.94,27,27,0,0,0-6-.64c-18,.05-35.9.24-53.84,0-11.92-.19-23.82,0-35.74-.21-2.53,0-4.6.65-5.83,3V596c1.23,2.38,3.3,3,5.84,3q49.395,0,98.8-.06a26.09,26.09,0,0,0,16.81-6.18c5.65-4.62,9.36-10.57,12.28-17.15a58.129,58.129,0,0,0,3.77-12.94V546.2Zm-84.76-59.6a3.64,3.64,0,0,1,3.41-2.09h6.7c1.92,0,3.83.09,5.74,0a4.54,4.54,0,0,1,4.77,3.54,10.93,10.93,0,0,1-.22,6.53c-.83,2.4-2.89,3-5.11,3-3.73.09-7.46,0-11.2,0a3.17,3.17,0,0,1-2.14-.93,8.44,8.44,0,0,1-1.95-10.05Zm27.28,60.78a4,4,0,0,1-4.21,3c-4.61-.17-9.25.13-13.87-.15a18.3,18.3,0,0,0-3,.07c-4,.44-6.46-1.44-7-4.92a29,29,0,0,1,.19-10.42,5,5,0,0,1,5-4c6.37-.08,12.74,0,19.11,0a4.22,4.22,0,0,1,3.8,3A22.74,22.74,0,0,1,617.74,547.38Z" fill="#feffff"/>
    <path id="Caminho_58" data-name="Caminho 58" d="M1139.72,441.5c-1.42,0-2.83-.21-4.24-.22-11.25,0-22.5.16-33.75,0-6-.12-9.58,2.3-11.84,7.92-3,7.55-6.72,14.82-10.16,22.2a8.922,8.922,0,0,1-2.45,3.68c-1-1.5-.86-3.09-.86-4.64V447.7c0-5.06-1-6.2-5.9-6.25-13.15-.12-26.29,0-39.44-.06-3.37,0-5,1.67-5,5v18.22c.3.37.58.74.87,1.11v20l-.87.39v60.14l-.2-.08c-7.27-3.17-14.58-6.26-21.84-9.45-3.33-1.46-6.62-3-10-4.27-3.63-1.33-5.32-.73-7.48,2.44a45.188,45.188,0,0,1-7.71,8.95,31.939,31.939,0,0,1-13.32,6.7,36.91,36.91,0,0,1-12.2.73,30.85,30.85,0,0,1-17-6.86,35.33,35.33,0,0,1-10-12.22,30.691,30.691,0,0,1-2.89-10.1,35.88,35.88,0,0,1,1.38-15.61,33.129,33.129,0,0,1,5.9-10.38A34.781,34.781,0,0,1,943,486.46a32.771,32.771,0,0,1,9.88-2.73,38.711,38.711,0,0,1,6.08-.2A32.49,32.49,0,0,1,977.37,490c3.9,2.85,6.71,6.67,9.65,10.37a2.8,2.8,0,0,0,3,1.06,30.856,30.856,0,0,0,7.17-2.52c6.23-2.73,12.42-5.54,18.62-8.31l10.29-4.55V464.6c-14.27-18.15-32.74-29.46-55.52-32.9-23.22-3.51-45.1.74-64.27,15-18.83,14-31.06,32.34-34.88,56.16-1.76-3.54-3.31-6.81-5-10-4.61-8.72-8.78-17.66-13.34-26.4-4-7.69-7.77-15.5-11.72-23.22-2-3.95-4.92-7-9.49-7.94-6.38-1.36-12.85.69-16.13,7.1-5,9.79-9.79,19.71-14.87,29.47-4.93,9.49-9.52,19.16-14.45,28.65-4.86,9.33-9.37,18.84-14.23,28.17-3.06,5.85-5.93,11.8-9,17.68a1.31,1.31,0,0,1-1.4.84H732.55c-3.79,0-5.42-1.53-5.43-5.55q-.06-50.3,0-100.58c0-3.44-1.87-5.08-5.1-5.08h-41.4c-3.58,0-5.43,1.56-5.43,5.44V542.78c.2,1.1.37,2.21.51,3.32v12.27a17,17,0,0,1-.29,3.1h0c-.07.41-.15.82-.23,1.22v31.2c0,3.9,1.72,5.16,5.1,5.17q51.18.12,102.35,0a21.689,21.689,0,0,0,4.21-.6,3.91,3.91,0,0,0,2.31-1.87c1.41-2,2.07-4.36,3.55-6.29a9,9,0,0,1,6.74-3.77c10.08-.66,20.18-.37,30.27-.19,6.35.11,12.71,0,19.06.16,1.66,0,3.32-.27,5-.28,5.64,0,9.83,2.26,12.36,7.43a16.6,16.6,0,0,0,2.55,3.7,4,4,0,0,0,2.9,1.42c1.48.06,2.94.35,4.44.35h34.71a14.258,14.258,0,0,0,4.8-.88,2.51,2.51,0,0,0,1.78-2c.19-1.19.69-1.1,1.56-.64a66.607,66.607,0,0,0,10.59,4.31A79.31,79.31,0,0,0,942.89,603c2.8.37,5.6.6,8.4.86a63.662,63.662,0,0,0,8.28.17,100.8,100.8,0,0,0,10.94-1,84.245,84.245,0,0,0,15-3.63,86.239,86.239,0,0,0,18.8-9.14,87.843,87.843,0,0,0,17.2-14.51,58.51,58.51,0,0,0,4.59-5.56v22.02c0,5.64,1,6.59,6.64,6.59h37.28c5.41,0,6.36-1,6.39-6.46V567.12a18.681,18.681,0,0,1,0-2.48c.11-.89-.1-2.24.82-2.5,1.28-.36,1.62,1.07,2,1.95,4.5,9.6,9.15,19.13,13.33,28.86,2,4.63,4.9,6.64,9.84,6a33.8,33.8,0,0,1,4.61,0h4.35c3.13-6.94,5.92-14,8.77-21.06,2.58-6.39,5-12.84,7.59-19.26l-2.17-4.65h-15.23c-4.23,0-8.46-.27-12.69-.34a17,17,0,0,0-2.82.38,30.649,30.649,0,0,1-9.51-.26,25.253,25.253,0,0,0-6.78.34,43.69,43.69,0,0,1-19.24-1.76,4.63,4.63,0,0,0-1.6-.23c-2.6,0-5.2-.07-7.79,0a3.64,3.64,0,0,1-3.19-1.47,21.3,21.3,0,0,1-1.47-2,2.441,2.441,0,0,0-2-1.33c-1.62-.18-2.18-1.3-1.76-2.94.09-.36.21-.64-.18-1a12.268,12.268,0,0,1-2.58-3.48c-.74-1.19-.55-1.85.71-2.45a7.191,7.191,0,0,1,1.68-.55c.52-.1.65-.36.64-.83s-.11-.8-.64-.87a2.09,2.09,0,0,1-1.86-1.18c-.18-.4-.54-.22-.84-.17-1.25.18-2.5.42-3.76.58a6.07,6.07,0,0,1-1.9,0,1.454,1.454,0,0,1-1.08-2,1.06,1.06,0,0,1,1.63-.69c1.26.63,1.94.59,2.42-1,.32-1,1.53-1.54,2.6-1.82,4.52-1.14,9-1.78,13.71-.67,1.58.38,3.22-.37,4.83-.58a3.571,3.571,0,0,1,2.74.42,1.89,1.89,0,0,0,1.44.22c9.17-1.14,18.36-.51,27.55-.28,2.95.07,6,.63,8.85.24,5.36-.73,10.7-.17,16-.11-.78-1.62-1.55-3.24-2.47-4.77-2-3.36-1.9-6.54-.24-10.05,7.1-15,14-30.13,21-45.2,3.12-6.72,6.26-13.44,9.36-20.18a17.732,17.732,0,0,0,1-3C1142.78,442.87,1142.16,441.54,1139.72,441.5ZM836.16,537.62c-.07.62-.67.85-1.35.84H822.39c-2.1,0-2.8-.83-2-2.73a93.944,93.944,0,0,1,5.83-11.66c1.23-2.09,3.15-1.87,4.29.35,1.85,3.6,3.62,7.24,5.47,10.85a4,4,0,0,1,.18,2.35Z" fill="#feffff"/>
    <path id="Caminho_59" data-name="Caminho 59" d="M552.71,645.81h-9.57l-1.89,4.43h-3.66l8.61-19.14h3.51l8.64,19.14h-3.72ZM551.54,643l-3.61-8.37L544.34,643Z" fill="#fff"/>
    <path id="Caminho_60" data-name="Caminho 60" d="M617.49,649.25a9.32,9.32,0,0,1-3.66-3.52,10.26,10.26,0,0,1,0-10.12,9.42,9.42,0,0,1,3.68-3.51,11.53,11.53,0,0,1,9.53-.45,8.681,8.681,0,0,1,3.28,2.37L628,636.19a6.7,6.7,0,0,0-5.12-2.25,7.231,7.231,0,0,0-3.53.86,6.23,6.23,0,0,0-2.43,2.4,7.28,7.28,0,0,0,0,6.94,6.16,6.16,0,0,0,2.43,2.4,7.23,7.23,0,0,0,3.53.86,6.68,6.68,0,0,0,5.12-2.27l2.29,2.19A8.738,8.738,0,0,1,627,649.7a11.18,11.18,0,0,1-4.31.82A10.89,10.89,0,0,1,617.49,649.25Z" fill="#fff"/>
    <path id="Caminho_61" data-name="Caminho 61" d="M699.12,645.81h-9.57l-1.89,4.43H684l8.62-19.14h3.5l8.64,19.14H701ZM697.94,643l-3.61-8.37L690.75,643Z" fill="#fff"/>
    <path id="Caminho_62" data-name="Caminho 62" d="M760.55,631.1h8.37a11.931,11.931,0,0,1,5.44,1.19,8.72,8.72,0,0,1,3.69,3.36,10.21,10.21,0,0,1,0,10,8.72,8.72,0,0,1-3.69,3.36,11.931,11.931,0,0,1-5.44,1.19h-8.37Zm8.2,16.13a8.11,8.11,0,0,0,3.71-.8,5.771,5.771,0,0,0,2.46-2.3,7.39,7.39,0,0,0,0-6.92,5.771,5.771,0,0,0-2.46-2.3,8.24,8.24,0,0,0-3.71-.8H764.1v13.12Z" fill="#fff"/>
    <path id="Caminho_63" data-name="Caminho 63" d="M850.86,647.26v3H836.5V631.1h14v3H840.05v5h9.25V642h-9.25v5.28Z" fill="#fff"/>
    <path id="Caminho_64" data-name="Caminho 64" d="M925.77,650.24V637.55l-6.29,10.51H917.9l-6.29-10.34v12.52h-3.4V631.1h2.93l7.6,12.69,7.47-12.69h2.93v19.14Z" fill="#fff"/>
    <path id="Caminho_65" data-name="Caminho 65" d="M987.66,631.1h3.56v19.14h-3.56Z" fill="#fff"/>
    <path id="Caminho_66" data-name="Caminho 66" d="M1062.17,645.81h-9.58l-1.88,4.43H1047l8.62-19.14h3.5l8.64,19.14h-3.72ZM1061,643l-3.61-8.37L1053.8,643Z" fill="#fff"/>
  </g>
</svg>
